<?xml version="1.0" encoding="UTF-8" standalone="no"?>
<svg
   xmlns:dc="http://purl.org/dc/elements/1.1/"
   xmlns:cc="http://creativecommons.org/ns#"
   xmlns:rdf="http://www.w3.org/1999/02/22-rdf-syntax-ns#"
   xmlns:svg="http://www.w3.org/2000/svg"
   xmlns="http://www.w3.org/2000/svg"
   xmlns:xlink="http://www.w3.org/1999/xlink"
   xmlns:sodipodi="http://sodipodi.sourceforge.net/DTD/sodipodi-0.dtd"
   xmlns:inkscape="http://www.inkscape.org/namespaces/inkscape"
   width="1350mm"
   height="550mm"
   viewBox="0 0 1350 550"
   version="1.1"
   id="svg8"
   inkscape:version="1.0.1 (3bc2e813f5, 2020-09-07)"
   sodipodi:docname="background.svg"
   inkscape:export-filename="C:\Users\nicholas.martin\source\gamejamathon\famish\public\assets\background.png"
   inkscape:export-xdpi="25.4"
   inkscape:export-ydpi="25.4">
  <defs
     id="defs2">
    <linearGradient
       inkscape:collect="always"
       id="linearGradient839">
      <stop
         style="stop-color:#2a2aff;stop-opacity:1"
         offset="0"
         id="stop835" />
      <stop
         style="stop-color:#002255;stop-opacity:0;"
         offset="1"
         id="stop837" />
    </linearGradient>
    <linearGradient
       inkscape:collect="always"
       xlink:href="#linearGradient839"
       id="linearGradient841"
       x1="98.689583"
       y1="294.91827"
       x2="98.689583"
       y2="-19.314585"
       gradientUnits="userSpaceOnUse"
       gradientTransform="matrix(4.0722062,0,0,2.771816,287.18576,-181.69164)" />
  </defs>
  <sodipodi:namedview
     id="base"
     pagecolor="#ffffff"
     bordercolor="#666666"
     borderopacity="1.0"
     inkscape:pageopacity="0.0"
     inkscape:pageshadow="2"
     inkscape:zoom="0.125"
     inkscape:cx="3151.2216"
     inkscape:cy="1916.1453"
     inkscape:document-units="mm"
     inkscape:current-layer="layer1"
     inkscape:document-rotation="0"
     showgrid="false"
     showborder="true"
     inkscape:window-width="1920"
     inkscape:window-height="1017"
     inkscape:window-x="-8"
     inkscape:window-y="-8"
     inkscape:window-maximized="1" />
  <metadata
     id="metadata5">
    <rdf:RDF>
      <cc:Work
         rdf:about="">
        <dc:format>image/svg+xml</dc:format>
        <dc:type
           rdf:resource="http://purl.org/dc/dcmitype/StillImage" />
        <dc:title></dc:title>
      </cc:Work>
    </rdf:RDF>
  </metadata>
  <g
     inkscape:label="Layer 1"
     inkscape:groupmode="layer"
     id="layer1">
    <rect
       style="opacity:0.8;fill:url(#linearGradient841);fill-opacity:1;stroke:none;stroke-width:1;stroke-linecap:round;stroke-linejoin:round;stroke-dasharray:24, 1"
       id="rect833"
       width="1369.4235"
       height="562.49957"
       x="-8.0322266"
       y="-0.54768956" />
    <g
       id="g898"
       transform="matrix(0.31480875,0,0,0.31480875,3.4761292,409.64365)"
       style="fill:#79dca0;fill-opacity:0.826471;stroke-width:0.840457">
      <path
         style="fill:#79dca0;fill-opacity:0.826471;stroke-width:0.840457"
         d="m 476.23095,266.47745 c -14.336,-17.83 -39.002,-7.575 -57.751,2.906 -24.049,13.463 -48.113,26.91 -72.177,40.373 8.493,-52.826 84.841,-79.887 83.848,-131.735 -0.286,-14.773 -9.321,-30.012 -23.537,-34.018 -15.059,-4.232 -35.825,2.68 -51.064,35.057 -9.623,20.465 -15.074,42.888 -15.917,65.476 -0.527,14.366 -1.988,31.849 -17.032,32.422 -3.117,-167.063 -1.416,-171.43 -9.532,-187.662998 -6.144,-12.303 -19.848,-21.986 -33.25,-18.899 -15.059,3.479 -33.973,25.992 -8.222,66.966998 7.032,11.189 15.224,21.805 20.104,34.093 9.698,24.425 5.135,51.908 0.422,77.779 l -10.827,59.377 c -0.994,5.451 -2.078,11.128 -5.376,15.586 -6.505,8.824 -18.101,8.689 -22.106,-6.445 -5.015,-18.944 -1.656,-39.032 2.635,-58.157 3.765,-16.836 24.636,-84.917 -20.329,-106.315 -17.694,-8.433 -43.234,0.617 -46.923,19.863 -3.795,19.742 14.261,35.9 25.736,52.405 14.833,21.353 19.712,49.318 12.996,74.436 -36.668,-3.93 -54.814,-41.592 -67.659,-69.617 -61.906996,-135.137998 34.65,-119.462 58.895,-147.425998 8.689,-10.029 10.797,-25.48 4.518,-37.18 -6.279,-11.7 -20.826,-18.507 -33.687,-15.209 -28.883,7.379 -31.624,51.953 -58.654,64.512 -14.155,6.580998 -32.511996,1.34 -41.727996,-11.249 -9.246,-12.649 -9.201,-29.515 -10.993,-45.086 -1.807,-15.616 -7.62,-33.0839995 -22.212,-38.80699952 -16.685,-6.53599998 -43.43,5.46600002 -45.207,42.45099952 -2.9969996,62.508998 53.338,77.808998 77.402,105.245998 35.101996,40.011 25.132996,109.116 66.559996,142.517 4.774,3.84 10.722,8.493 9.653,14.517 -1.205,6.776 -9.547,11.249 -24.29,2.319 -22.287,-13.508 -42.977996,-29.651 -61.469996,-48.008 -15.059,-14.938 -37.15,-38.972 -61.892,-27.919 -22.9649996,10.255 -28.552,52.134 13.432,73.457 17.167,8.719 31.112,10.376 101.074996,23.718 28.04,5.346 33.22,26.458 -1.476,39.273 -16.791,6.189 -33.686996,13.312 -46.862996,25.404 -13.176,12.092 -22.136,30.163 -19.049,47.782 5.195,29.711 45.974996,45.658 64.918996,4.141 5.21,-11.4 7.424,-23.913 11.565,-35.75 15.812,-45.131 52.239,-55.853 75.174,-45.448 19.441,8.824 28.898,32.316 27.256,53.594 -1.4,18.131 -9.336,47.07598 -18.598,62.85798 h 57.013 c 1.626,-25.208 3.855,-62.73798 12.408,-86.43998 9.412,-26.037 27.648,-50.236 53.474,-60.235 38.054,-14.743 88.2,3.885 120.44,-24.275 12.046,-10.543 18.326,-30.18 8.296,-42.648 z"
         id="path843"
         sodipodi:nodetypes="ccccccccccsccccccccccccsccccccccccccsccsccccccccccc" />
      <g
         id="g845"
         style="fill:#79dca0;fill-opacity:0.826471;stroke-width:0.840457">
</g>
      <g
         id="g847"
         style="fill:#79dca0;fill-opacity:0.826471;stroke-width:0.840457">
</g>
      <g
         id="g849"
         style="fill:#79dca0;fill-opacity:0.826471;stroke-width:0.840457">
</g>
      <g
         id="g851"
         style="fill:#79dca0;fill-opacity:0.826471;stroke-width:0.840457">
</g>
      <g
         id="g853"
         style="fill:#79dca0;fill-opacity:0.826471;stroke-width:0.840457">
</g>
      <g
         id="g855"
         style="fill:#79dca0;fill-opacity:0.826471;stroke-width:0.840457">
</g>
      <g
         id="g857"
         style="fill:#79dca0;fill-opacity:0.826471;stroke-width:0.840457">
</g>
      <g
         id="g859"
         style="fill:#79dca0;fill-opacity:0.826471;stroke-width:0.840457">
</g>
      <g
         id="g861"
         style="fill:#79dca0;fill-opacity:0.826471;stroke-width:0.840457">
</g>
      <g
         id="g863"
         style="fill:#79dca0;fill-opacity:0.826471;stroke-width:0.840457">
</g>
      <g
         id="g865"
         style="fill:#79dca0;fill-opacity:0.826471;stroke-width:0.840457">
</g>
      <g
         id="g867"
         style="fill:#79dca0;fill-opacity:0.826471;stroke-width:0.840457">
</g>
      <g
         id="g869"
         style="fill:#79dca0;fill-opacity:0.826471;stroke-width:0.840457">
</g>
      <g
         id="g871"
         style="fill:#79dca0;fill-opacity:0.826471;stroke-width:0.840457">
</g>
      <g
         id="g873"
         style="fill:#79dca0;fill-opacity:0.826471;stroke-width:0.840457">
</g>
    </g>
    <g
       id="g966"
       transform="matrix(0.18717983,0,0,0.18717983,830.08285,472.78783)"
       style="fill:#79dca0;fill-opacity:0.829412;stroke-width:1.41352">
      <path
         style="fill:#79dca0;fill-opacity:0.829412;stroke-width:1.41352"
         d="m 476.23095,266.47745 c -14.336,-17.83 -39.002,-7.575 -57.751,2.906 -24.049,13.463 -48.113,26.91 -72.177,40.373 8.493,-52.826 84.841,-79.887 83.848,-131.735 -0.286,-14.773 -9.321,-30.012 -23.537,-34.018 -15.059,-4.232 -35.825,2.68 -51.064,35.057 -9.623,20.465 -15.074,42.888 -15.917,65.476 -0.527,14.366 -1.988,31.849 -17.032,32.422 -3.117,-167.063 -1.416,-171.43 -9.532,-187.662998 -6.144,-12.303 -19.848,-21.986 -33.25,-18.899 -15.059,3.479 -33.973,25.992 -8.222,66.966998 7.032,11.189 15.224,21.805 20.104,34.093 9.698,24.425 5.135,51.908 0.422,77.779 l -10.827,59.377 c -0.994,5.451 -2.078,11.128 -5.376,15.586 -6.505,8.824 -18.101,8.689 -22.106,-6.445 -5.015,-18.944 -1.656,-39.032 2.635,-58.157 3.765,-16.836 24.636,-84.917 -20.329,-106.315 -17.694,-8.433 -43.234,0.617 -46.923,19.863 -3.795,19.742 14.261,35.9 25.736,52.405 14.833,21.353 19.712,49.318 12.996,74.436 -36.668,-3.93 -54.814,-41.592 -67.659,-69.617 -61.906996,-135.137998 34.65,-119.462 58.895,-147.425998 8.689,-10.029 10.797,-25.48 4.518,-37.18 -6.279,-11.7 -20.826,-18.507 -33.687,-15.209 -28.883,7.379 -31.624,51.953 -58.654,64.512 -14.155,6.580998 -32.511996,1.34 -41.727996,-11.249 -9.246,-12.649 -9.201,-29.515 -10.993,-45.086 -1.807,-15.616 -7.62,-33.0839995 -22.212,-38.80699952 -16.685,-6.53599998 -43.43,5.46600002 -45.207,42.45099952 -2.9969996,62.508998 53.338,77.808998 77.402,105.245998 35.101996,40.011 25.132996,109.116 66.559996,142.517 4.774,3.84 10.722,8.493 9.653,14.517 -1.205,6.776 -9.547,11.249 -24.29,2.319 -22.287,-13.508 -42.977996,-29.651 -61.469996,-48.008 -15.059,-14.938 -37.15,-38.972 -61.892,-27.919 -22.9649996,10.255 -28.552,52.134 13.432,73.457 17.167,8.719 31.112,10.376 101.074996,23.718 28.04,5.346 33.22,26.458 -1.476,39.273 -16.791,6.189 -33.686996,13.312 -46.862996,25.404 -13.176,12.092 -22.136,30.163 -19.049,47.782 5.195,29.711 45.974996,45.658 64.918996,4.141 5.21,-11.4 7.424,-23.913 11.565,-35.75 15.812,-45.131 52.239,-55.853 75.174,-45.448 19.441,8.824 28.898,32.316 27.256,53.594 -1.4,18.131 -9.336,47.07598 -18.598,62.85798 h 57.013 c 1.626,-25.208 3.855,-62.73798 12.408,-86.43998 9.412,-26.037 27.648,-50.236 53.474,-60.235 38.054,-14.743 88.2,3.885 120.44,-24.275 12.046,-10.543 18.326,-30.18 8.296,-42.648 z"
         id="path934"
         sodipodi:nodetypes="ccccccccccsccccccccccccsccccccccccccsccsccccccccccc" />
      <g
         id="g936"
         style="fill:#79dca0;fill-opacity:0.829412;stroke-width:1.41352">
</g>
      <g
         id="g938"
         style="fill:#79dca0;fill-opacity:0.829412;stroke-width:1.41352">
</g>
      <g
         id="g940"
         style="fill:#79dca0;fill-opacity:0.829412;stroke-width:1.41352">
</g>
      <g
         id="g942"
         style="fill:#79dca0;fill-opacity:0.829412;stroke-width:1.41352">
</g>
      <g
         id="g944"
         style="fill:#79dca0;fill-opacity:0.829412;stroke-width:1.41352">
</g>
      <g
         id="g946"
         style="fill:#79dca0;fill-opacity:0.829412;stroke-width:1.41352">
</g>
      <g
         id="g948"
         style="fill:#79dca0;fill-opacity:0.829412;stroke-width:1.41352">
</g>
      <g
         id="g950"
         style="fill:#79dca0;fill-opacity:0.829412;stroke-width:1.41352">
</g>
      <g
         id="g952"
         style="fill:#79dca0;fill-opacity:0.829412;stroke-width:1.41352">
</g>
      <g
         id="g954"
         style="fill:#79dca0;fill-opacity:0.829412;stroke-width:1.41352">
</g>
      <g
         id="g956"
         style="fill:#79dca0;fill-opacity:0.829412;stroke-width:1.41352">
</g>
      <g
         id="g958"
         style="fill:#79dca0;fill-opacity:0.829412;stroke-width:1.41352">
</g>
      <g
         id="g960"
         style="fill:#79dca0;fill-opacity:0.829412;stroke-width:1.41352">
</g>
      <g
         id="g962"
         style="fill:#79dca0;fill-opacity:0.829412;stroke-width:1.41352">
</g>
      <g
         id="g964"
         style="fill:#79dca0;fill-opacity:0.829412;stroke-width:1.41352">
</g>
      <path
         style="fill:#79dca0;fill-opacity:0.829412;stroke-width:1.41352"
         d="m 45.402715,266.47745 c -14.336,-17.83 -39.0020004,-7.575 -57.751,2.906 -24.049,13.463 -48.113,26.91 -72.177,40.373 8.493,-52.826 84.84099956,-79.887 83.84799956,-131.735 -0.286,-14.773 -9.32099996,-30.012 -23.53699956,-34.018 -15.059,-4.232 -35.825,2.68 -51.064,35.057 -9.623,20.465 -15.074,42.888 -15.917,65.476 -0.527,14.366 -1.988,31.849 -17.032005,32.422 -3.117,-167.063 -1.416,-171.43 -9.532,-187.662998 -6.144,-12.303 -19.848,-21.986 -33.25,-18.899 -15.059,3.479 -33.973,25.992 -8.222,66.966998 7.032,11.189 15.224,21.805 20.104,34.093 9.698,24.425 5.135,51.908 0.422,77.779 l -10.827,59.377 c -0.994,5.451 -2.078,11.128 -5.376,15.586 -6.505,8.824 -18.101,8.689 -22.106,-6.445 -5.015,-18.944 -1.656,-39.032 2.635,-58.157 3.765,-16.836 24.636,-84.917 -20.329,-106.315 -17.694,-8.433 -43.234,0.617 -46.923,19.863 -3.795,19.742 14.261,35.9 25.736,52.405 14.833,21.353 19.712,49.318 12.996,74.436 -36.668,-3.93 -54.814,-41.592 -67.659,-69.617 -61.90699,-135.137998 34.65,-119.462 58.895,-147.425998 8.689,-10.029 10.797,-25.48 4.518,-37.18 -6.279,-11.7 -20.826,-18.507 -33.687,-15.209 -28.883,7.379 -31.624,51.953 -58.654,64.512 -14.155,6.580998 -32.51199,1.34 -41.72799,-11.249 -9.246,-12.649 -9.201,-29.515 -10.993,-45.086 -1.807,-15.616 -7.62,-33.0839995 -22.212,-38.80699952 -16.685,-6.53599998 -43.43,5.46600002 -45.207,42.45099952 -2.997,62.508998 53.338,77.808998 77.402,105.245998 35.10199,40.011 25.13299,109.116 66.55999,142.517 4.774,3.84 10.722,8.493 9.653,14.517 -1.205,6.776 -9.547,11.249 -24.29,2.319 -22.287,-13.508 -42.97799,-29.651 -61.46999,-48.008 -15.059,-14.938 -37.15,-38.972 -61.892,-27.919 -22.965,10.255 -28.552,52.134 13.432,73.457 17.167,8.719 31.112,10.376 101.07499,23.718 28.04,5.346 33.22,26.458 -1.476,39.273 -16.791,6.189 -33.68699,13.312 -46.86299,25.404 -13.176,12.092 -22.136,30.163 -19.049,47.782 5.195,29.711 45.97499,45.658 64.91899,4.141 5.21,-11.4 7.424,-23.913 11.565,-35.75 15.812,-45.131 52.239,-55.853 75.174,-45.448 19.441,8.824 28.898,32.316 27.256,53.594 -1.4,18.131 -9.336,47.07598 -18.598,62.85798 h 57.013 c 1.626,-25.208 3.855,-62.73798 12.408,-86.43998 9.412,-26.037 27.648,-50.236 53.474005,-60.235 38.054,-14.743 88.1999996,3.885 120.44,-24.275 12.046,-10.543 18.326,-30.18 8.296,-42.648 z"
         id="path1093"
         sodipodi:nodetypes="ccccccccccsccccccccccccsccccccccccccsccsccccccccccc" />
    </g>
    <g
       id="g1000"
       transform="matrix(-0.27713641,0,0,0.27713641,1338.3337,427.7292)"
       style="fill:#79dca0;fill-opacity:0.688235;stroke-width:0.956206;stroke-miterlimit:4;stroke-dasharray:none">
      <path
         style="fill:#79dca0;fill-opacity:0.688235;stroke-width:0.956206;stroke-miterlimit:4;stroke-dasharray:none"
         d="m 476.23095,266.47745 c -14.336,-17.83 -39.002,-7.575 -57.751,2.906 -24.049,13.463 -48.113,26.91 -72.177,40.373 8.493,-52.826 84.841,-79.887 83.848,-131.735 -0.286,-14.773 -9.321,-30.012 -23.537,-34.018 -15.059,-4.232 -35.825,2.68 -51.064,35.057 -9.623,20.465 -15.074,42.888 -15.917,65.476 -0.527,14.366 -1.988,31.849 -17.032,32.422 -3.117,-167.063 -1.416,-171.43 -9.532,-187.662998 -6.144,-12.303 -19.848,-21.986 -33.25,-18.899 -15.059,3.479 -33.973,25.992 -8.222,66.966998 7.032,11.189 15.224,21.805 20.104,34.093 9.698,24.425 5.135,51.908 0.422,77.779 l -10.827,59.377 c -0.994,5.451 -2.078,11.128 -5.376,15.586 -6.505,8.824 -18.101,8.689 -22.106,-6.445 -5.015,-18.944 -1.656,-39.032 2.635,-58.157 3.765,-16.836 24.636,-84.917 -20.329,-106.315 -17.694,-8.433 -43.234,0.617 -46.923,19.863 -3.795,19.742 14.261,35.9 25.736,52.405 14.833,21.353 19.712,49.318 12.996,74.436 -36.668,-3.93 -54.814,-41.592 -67.659,-69.617 -61.906996,-135.137998 34.65,-119.462 58.895,-147.425998 8.689,-10.029 10.797,-25.48 4.518,-37.18 -6.279,-11.7 -20.826,-18.507 -33.687,-15.209 -28.883,7.379 -31.624,51.953 -58.654,64.512 -14.155,6.580998 -32.511996,1.34 -41.727996,-11.249 -9.246,-12.649 -9.201,-29.515 -10.993,-45.086 -1.807,-15.616 -7.62,-33.0839995 -22.212,-38.80699952 -16.685,-6.53599998 -43.43,5.46600002 -45.207,42.45099952 -2.9969996,62.508998 53.338,77.808998 77.402,105.245998 35.101996,40.011 25.132996,109.116 66.559996,142.517 4.774,3.84 10.722,8.493 9.653,14.517 -1.205,6.776 -9.547,11.249 -24.29,2.319 -22.287,-13.508 -42.977996,-29.651 -61.469996,-48.008 -15.059,-14.938 -37.15,-38.972 -61.892,-27.919 -22.9649996,10.255 -28.552,52.134 13.432,73.457 17.167,8.719 31.112,10.376 101.074996,23.718 28.04,5.346 33.22,26.458 -1.476,39.273 -16.791,6.189 -33.686996,13.312 -46.862996,25.404 -13.176,12.092 -22.136,30.163 -19.049,47.782 5.195,29.711 45.974996,45.658 64.918996,4.141 5.21,-11.4 7.424,-23.913 11.565,-35.75 15.812,-45.131 52.239,-55.853 75.174,-45.448 19.441,8.824 28.898,32.316 27.256,53.594 -1.4,18.131 -9.336,47.07598 -18.598,62.85798 h 57.013 c 1.626,-25.208 3.855,-62.73798 12.408,-86.43998 9.412,-26.037 27.648,-50.236 53.474,-60.235 38.054,-14.743 88.2,3.885 120.44,-24.275 12.046,-10.543 18.326,-30.18 8.296,-42.648 z"
         id="path968"
         sodipodi:nodetypes="ccccccccccsccccccccccccsccccccccccccsccsccccccccccc" />
      <g
         id="g970"
         style="fill:#79dca0;fill-opacity:0.688235;stroke-width:0.956206;stroke-miterlimit:4;stroke-dasharray:none">
</g>
      <g
         id="g972"
         style="fill:#79dca0;fill-opacity:0.688235;stroke-width:0.956206;stroke-miterlimit:4;stroke-dasharray:none">
</g>
      <g
         id="g974"
         style="fill:#79dca0;fill-opacity:0.688235;stroke-width:0.956206;stroke-miterlimit:4;stroke-dasharray:none">
</g>
      <g
         id="g976"
         style="fill:#79dca0;fill-opacity:0.688235;stroke-width:0.956206;stroke-miterlimit:4;stroke-dasharray:none">
</g>
      <g
         id="g978"
         style="fill:#79dca0;fill-opacity:0.688235;stroke-width:0.956206;stroke-miterlimit:4;stroke-dasharray:none">
</g>
      <g
         id="g980"
         style="fill:#79dca0;fill-opacity:0.688235;stroke-width:0.956206;stroke-miterlimit:4;stroke-dasharray:none">
</g>
      <g
         id="g982"
         style="fill:#79dca0;fill-opacity:0.688235;stroke-width:0.956206;stroke-miterlimit:4;stroke-dasharray:none">
</g>
      <g
         id="g984"
         style="fill:#79dca0;fill-opacity:0.688235;stroke-width:0.956206;stroke-miterlimit:4;stroke-dasharray:none">
</g>
      <g
         id="g986"
         style="fill:#79dca0;fill-opacity:0.688235;stroke-width:0.956206;stroke-miterlimit:4;stroke-dasharray:none">
</g>
      <g
         id="g988"
         style="fill:#79dca0;fill-opacity:0.688235;stroke-width:0.956206;stroke-miterlimit:4;stroke-dasharray:none">
</g>
      <g
         id="g990"
         style="fill:#79dca0;fill-opacity:0.688235;stroke-width:0.956206;stroke-miterlimit:4;stroke-dasharray:none">
</g>
      <g
         id="g992"
         style="fill:#79dca0;fill-opacity:0.688235;stroke-width:0.956206;stroke-miterlimit:4;stroke-dasharray:none">
</g>
      <g
         id="g994"
         style="fill:#79dca0;fill-opacity:0.688235;stroke-width:0.956206;stroke-miterlimit:4;stroke-dasharray:none">
</g>
      <g
         id="g996"
         style="fill:#79dca0;fill-opacity:0.688235;stroke-width:0.956206;stroke-miterlimit:4;stroke-dasharray:none">
</g>
      <g
         id="g998"
         style="fill:#79dca0;fill-opacity:0.688235;stroke-width:0.956206;stroke-miterlimit:4;stroke-dasharray:none">
</g>
    </g>
    <g
       id="g1057"
       transform="matrix(0.45067428,0,0,0.45067428,553.86098,369.3328)"
       style="fill:#37c871;fill-opacity:0.820588;stroke-width:0.587085">
      <path
         style="fill:#37c871;fill-opacity:0.820588;stroke-width:0.587085"
         d="m 212.547,460.851 c 3.162,-24.305 4.864,-52.887 -13.417,-69.225 -25.495,-22.799 -70.415,-4.352 -97.31,-25.464 C 82.078,350.682 81.4,321.829 74.488,297.72 66.838,271.036 49.385,247.273 26.209,231.988 20.11,227.967 12.792,223.103 12.927,215.785 c 0.151,-8.237 10.797,-12.951 18.552,-10.18 7.755,2.771 12.77,10.225 16.625,17.498 3.855,7.288 7.349,15.164 13.824,20.254 -0.045,-17.001 -0.075,-34.003 -0.12,-51.004 -0.015,-4.608 0.437,-10.059 4.397,-12.424 5.542,-3.298 13.478,0.542 15.089,16.369 2.199,21.609 4.397,43.234 6.596,64.843 11.384,-10.089 16.535,-26.699 12.86,-41.457 -1.596,-6.4 -4.292,-14.321 0.648,-18.688 5.421,-4.804 15.887,-1.717 18.281,13.327 5.677,35.689 -27.648,71.258 -15.872,105.442 6.641,19.29 26.729,37.722 75.821,39.304 -11.264,-19.26 -22.92,-40.177 -20.856,-62.389 1.566,-16.776 10.812,-31.759 15.45,-47.962 10.933,-38.174 -7.394,-82.703 -42.029,-102.129 -11.927,-6.686 -25.329,-10.601 -36.774,-18.101 -11.415,-7.499 -21.052,-20.239 -19.17,-33.792 15.556,-6.505 32.512,4.909 44.695,16.55 12.183,11.64 25.992,25.224 42.782,23.733 4.984,-11.068 -3.087,-23.898 -12.981,-30.931 -9.894,-7.032 -21.926,-11.083 -30.539,-19.622 -8.629,-8.538 -12.002,-24.591 -2.424,-32.045 9.788,-7.635 24.094,-0.467 33.129,8.026 26.504,24.922 40.599,60.988 44.529,97.144 3.915,36.171 -1.521,72.719 -9.276,108.273 -3.735,17.137 4.006,27.603 17.679,17.047 42.21,-32.602 28.009,-72.056 32.331,-87.13 1.656,-5.768 6.942,-11.098 12.89,-10.315 9.939,1.31 10.662,15.36 8.629,25.178 -5.436,26.202 -11.505,53.7 -29.229,73.743 -7.891,8.93 -17.784,15.962 -25.374,25.148 -7.605,9.186 -12.815,21.73 -8.96,32.994 5.707,16.715 29.365,21.384 44.574,12.424 32.693,-19.26 43.144,-116.058 41.879,-144.113 -1.31,-29.32 -11.249,-59.437 -32.964,-79.179 -10.722,-9.758 -23.853,-16.61 -34.485,-26.458 -10.632,-9.848 -18.854,-24.41 -15.36,-38.49 13.222,-8.824 30.901,2.756 39.71,15.992 8.794,13.237 15.27,29.711 29.711,36.337 C 256.307,98.04 245.42,77.078 234.547,56.116 c -6.024,-11.61 -11.038,-26.985 1.31,-33.069 6.084,-2.997 13.764,0 18.221,5.105 4.457,5.12 6.46,11.866 8.328,18.387 8.599,29.907 17.197,59.799 25.796,89.705 27.302,-52.932 4.427,-94.027 3.539,-111.24 -0.437,-8.493 2.394,-17.815 9.562,-22.392 10.497,-6.702 25.481,0.346 31.097,11.474 13.538,26.79 -12.574,75.234 -25.404,117.594 -8.252,27.256 -12.122,57.374 -1.31,83.712 5.466,-15.375 10.933,-30.75 16.399,-46.11 1.792,-5.03 4.412,-10.797 9.653,-11.791 5.286,-1.009 10.195,3.991 11.159,9.291 1.536,8.478 -71.529,205.673 -74.451,213.76 30.193,-27.497 60.386,-55.01 90.579,-82.507 8.252,-7.514 16.896,-15.646 19.787,-26.428 6.581,-24.546 -18.778,-45.583 -24.862,-70.249 -4.593,-18.628 6.596,-29.109 16.55,-26.835 6.219,1.416 10.059,7.529 12.845,13.252 7.8,16.053 12.71,33.506 14.381,51.275 6.581,-13.192 13.176,-26.398 19.757,-39.59 4.141,-8.297 10.24,-17.845 19.516,-17.559 7.951,0.241 13.824,8.433 14.321,16.384 1.37,22.317 -46.065,89.525 -63.985,111.556 8.84,-5.978 18.402,-12.183 29.064,-12.077 10.662,0.09 21.82,9.728 19.2,20.073 -3.192,12.604 -20.344,13.432 -33.34,13.779 -33.355,0.888 -65.928,17.709 -85.986,44.378 -14.773,19.667 -22.769,43.836 -38.114,63.051 -15.345,19.215 -43.113,32.768 -64.497,20.6"
         id="path1002" />
      <g
         id="g1004"
         style="fill:#37c871;fill-opacity:0.820588;stroke-width:0.587085">
</g>
      <g
         id="g1006"
         style="fill:#37c871;fill-opacity:0.820588;stroke-width:0.587085">
</g>
      <g
         id="g1008"
         style="fill:#37c871;fill-opacity:0.820588;stroke-width:0.587085">
</g>
      <g
         id="g1010"
         style="fill:#37c871;fill-opacity:0.820588;stroke-width:0.587085">
</g>
      <g
         id="g1012"
         style="fill:#37c871;fill-opacity:0.820588;stroke-width:0.587085">
</g>
      <g
         id="g1014"
         style="fill:#37c871;fill-opacity:0.820588;stroke-width:0.587085">
</g>
      <g
         id="g1016"
         style="fill:#37c871;fill-opacity:0.820588;stroke-width:0.587085">
</g>
      <g
         id="g1018"
         style="fill:#37c871;fill-opacity:0.820588;stroke-width:0.587085">
</g>
      <g
         id="g1020"
         style="fill:#37c871;fill-opacity:0.820588;stroke-width:0.587085">
</g>
      <g
         id="g1022"
         style="fill:#37c871;fill-opacity:0.820588;stroke-width:0.587085">
</g>
      <g
         id="g1024"
         style="fill:#37c871;fill-opacity:0.820588;stroke-width:0.587085">
</g>
      <g
         id="g1026"
         style="fill:#37c871;fill-opacity:0.820588;stroke-width:0.587085">
</g>
      <g
         id="g1028"
         style="fill:#37c871;fill-opacity:0.820588;stroke-width:0.587085">
</g>
      <g
         id="g1030"
         style="fill:#37c871;fill-opacity:0.820588;stroke-width:0.587085">
</g>
      <g
         id="g1032"
         style="fill:#37c871;fill-opacity:0.820588;stroke-width:0.587085">
</g>
    </g>
    <g
       id="g1127"
       transform="matrix(-0.27713641,0,0,0.27713641,621.29692,422.76806)"
       style="fill:#79dca0;fill-opacity:0.688235;stroke-width:0.956206;stroke-miterlimit:4;stroke-dasharray:none">
      <path
         style="fill:#79dca0;fill-opacity:0.688235;stroke-width:0.956206;stroke-miterlimit:4;stroke-dasharray:none"
         d="m 476.23095,266.47745 c -14.336,-17.83 -39.002,-7.575 -57.751,2.906 -24.049,13.463 -48.113,26.91 -72.177,40.373 8.493,-52.826 84.841,-79.887 83.848,-131.735 -0.286,-14.773 -9.321,-30.012 -23.537,-34.018 -15.059,-4.232 -35.825,2.68 -51.064,35.057 -9.623,20.465 -15.074,42.888 -15.917,65.476 -0.527,14.366 -1.988,31.849 -17.032,32.422 -3.117,-167.063 -1.416,-171.43 -9.532,-187.662998 -6.144,-12.303 -19.848,-21.986 -33.25,-18.899 -15.059,3.479 -33.973,25.992 -8.222,66.966998 7.032,11.189 15.224,21.805 20.104,34.093 9.698,24.425 5.135,51.908 0.422,77.779 l -10.827,59.377 c -0.994,5.451 -2.078,11.128 -5.376,15.586 -6.505,8.824 -18.101,8.689 -22.106,-6.445 -5.015,-18.944 -1.656,-39.032 2.635,-58.157 3.765,-16.836 24.636,-84.917 -20.329,-106.315 -17.694,-8.433 -43.234,0.617 -46.923,19.863 -3.795,19.742 14.261,35.9 25.736,52.405 14.833,21.353 19.712,49.318 12.996,74.436 -36.668,-3.93 -54.814,-41.592 -67.659,-69.617 -61.906996,-135.137998 34.65,-119.462 58.895,-147.425998 8.689,-10.029 10.797,-25.48 4.518,-37.18 -6.279,-11.7 -20.826,-18.507 -33.687,-15.209 -28.883,7.379 -31.624,51.953 -58.654,64.512 -14.155,6.580998 -32.511996,1.34 -41.727996,-11.249 -9.246,-12.649 -9.201,-29.515 -10.993,-45.086 -1.807,-15.616 -7.62,-33.0839995 -22.212,-38.80699952 -16.685,-6.53599998 -43.43,5.46600002 -45.207,42.45099952 -2.9969996,62.508998 53.338,77.808998 77.402,105.245998 35.101996,40.011 25.132996,109.116 66.559996,142.517 4.774,3.84 10.722,8.493 9.653,14.517 -1.205,6.776 -9.547,11.249 -24.29,2.319 -22.287,-13.508 -42.977996,-29.651 -61.469996,-48.008 -15.059,-14.938 -37.15,-38.972 -61.892,-27.919 -22.9649996,10.255 -28.552,52.134 13.432,73.457 17.167,8.719 31.112,10.376 101.074996,23.718 28.04,5.346 33.22,26.458 -1.476,39.273 -16.791,6.189 -33.686996,13.312 -46.862996,25.404 -13.176,12.092 -22.136,30.163 -19.049,47.782 5.195,29.711 45.974996,45.658 64.918996,4.141 5.21,-11.4 7.424,-23.913 11.565,-35.75 15.812,-45.131 52.239,-55.853 75.174,-45.448 19.441,8.824 28.898,32.316 27.256,53.594 -1.4,18.131 -9.336,47.07598 -18.598,62.85798 h 57.013 c 1.626,-25.208 3.855,-62.73798 12.408,-86.43998 9.412,-26.037 27.648,-50.236 53.474,-60.235 38.054,-14.743 88.2,3.885 120.44,-24.275 12.046,-10.543 18.326,-30.18 8.296,-42.648 z"
         id="path1095"
         sodipodi:nodetypes="ccccccccccsccccccccccccsccccccccccccsccsccccccccccc" />
      <g
         id="g1097"
         style="fill:#79dca0;fill-opacity:0.688235;stroke-width:0.956206;stroke-miterlimit:4;stroke-dasharray:none">
</g>
      <g
         id="g1099"
         style="fill:#79dca0;fill-opacity:0.688235;stroke-width:0.956206;stroke-miterlimit:4;stroke-dasharray:none">
</g>
      <g
         id="g1101"
         style="fill:#79dca0;fill-opacity:0.688235;stroke-width:0.956206;stroke-miterlimit:4;stroke-dasharray:none">
</g>
      <g
         id="g1103"
         style="fill:#79dca0;fill-opacity:0.688235;stroke-width:0.956206;stroke-miterlimit:4;stroke-dasharray:none">
</g>
      <g
         id="g1105"
         style="fill:#79dca0;fill-opacity:0.688235;stroke-width:0.956206;stroke-miterlimit:4;stroke-dasharray:none">
</g>
      <g
         id="g1107"
         style="fill:#79dca0;fill-opacity:0.688235;stroke-width:0.956206;stroke-miterlimit:4;stroke-dasharray:none">
</g>
      <g
         id="g1109"
         style="fill:#79dca0;fill-opacity:0.688235;stroke-width:0.956206;stroke-miterlimit:4;stroke-dasharray:none">
</g>
      <g
         id="g1111"
         style="fill:#79dca0;fill-opacity:0.688235;stroke-width:0.956206;stroke-miterlimit:4;stroke-dasharray:none">
</g>
      <g
         id="g1113"
         style="fill:#79dca0;fill-opacity:0.688235;stroke-width:0.956206;stroke-miterlimit:4;stroke-dasharray:none">
</g>
      <g
         id="g1115"
         style="fill:#79dca0;fill-opacity:0.688235;stroke-width:0.956206;stroke-miterlimit:4;stroke-dasharray:none">
</g>
      <g
         id="g1117"
         style="fill:#79dca0;fill-opacity:0.688235;stroke-width:0.956206;stroke-miterlimit:4;stroke-dasharray:none">
</g>
      <g
         id="g1119"
         style="fill:#79dca0;fill-opacity:0.688235;stroke-width:0.956206;stroke-miterlimit:4;stroke-dasharray:none">
</g>
      <g
         id="g1121"
         style="fill:#79dca0;fill-opacity:0.688235;stroke-width:0.956206;stroke-miterlimit:4;stroke-dasharray:none">
</g>
      <g
         id="g1123"
         style="fill:#79dca0;fill-opacity:0.688235;stroke-width:0.956206;stroke-miterlimit:4;stroke-dasharray:none">
</g>
      <g
         id="g1125"
         style="fill:#79dca0;fill-opacity:0.688235;stroke-width:0.956206;stroke-miterlimit:4;stroke-dasharray:none">
</g>
    </g>
    <g
       id="g1232"
       transform="matrix(0.71278443,0,0,0.71278443,893.47017,200.07047)"
       style="fill:#de87aa;fill-opacity:0.679412;stroke-width:0.37178;stroke-miterlimit:4;stroke-dasharray:none">
      <g
         id="g1153"
         style="fill:#de87aa;fill-opacity:0.679412;stroke-width:0.37178;stroke-miterlimit:4;stroke-dasharray:none">
	<path
   style="fill:#de87aa;fill-opacity:0.679412;stroke-width:0.37178;stroke-miterlimit:4;stroke-dasharray:none"
   d="m 290.828,76.142 h -44.766 c -12.788,0 -23.155,-10.367 -23.155,-23.155 v 0 c 0,-12.788 10.367,-23.155 23.155,-23.155 h 44.766 c 12.788,0 23.155,10.367 23.155,23.155 v 0 c 0,12.789 -10.367,23.155 -23.155,23.155 z"
   id="path1129" />

	<path
   style="fill:#de87aa;fill-opacity:0.679412;stroke-width:0.37178;stroke-miterlimit:4;stroke-dasharray:none"
   d="M 293.916,252.139 H 249.15 c -12.788,0 -23.155,-10.367 -23.155,-23.155 v 0 c 0,-12.788 10.367,-23.155 23.155,-23.155 h 44.766 c 12.788,0 23.155,10.367 23.155,23.155 v 0 c 0,12.788 -10.367,23.155 -23.155,23.155 z"
   id="path1131" />

	<path
   style="fill:#de87aa;fill-opacity:0.679412;stroke-width:0.37178;stroke-miterlimit:4;stroke-dasharray:none"
   d="M 273.846,164.129 H 229.08 c -12.788,0 -23.155,-10.367 -23.155,-23.155 v 0 c 0,-12.788 10.367,-23.155 23.155,-23.155 h 44.766 c 12.788,0 23.155,10.367 23.155,23.155 v 0 c 0,12.789 -10.367,23.155 -23.155,23.155 z"
   id="path1133" />

	<path
   style="fill:#de87aa;fill-opacity:0.679412;stroke-width:0.37178;stroke-miterlimit:4;stroke-dasharray:none"
   d="M 288.256,340.148 H 243.49 c -12.788,0 -23.155,-10.367 -23.155,-23.155 v 0 c 0,-12.788 10.367,-23.155 23.155,-23.155 h 44.766 c 12.788,0 23.155,10.367 23.155,23.155 v 0 c -0.002,12.787 -10.368,23.155 -23.155,23.155 z"
   id="path1135" />

	<path
   style="fill:#de87aa;fill-opacity:0.679412;stroke-width:0.37178;stroke-miterlimit:4;stroke-dasharray:none"
   d="m 275.39,428.157 h -44.766 c -12.788,0 -23.155,-10.367 -23.155,-23.155 v 0 c 0,-12.788 10.367,-23.155 23.155,-23.155 h 44.766 c 12.788,0 23.155,10.367 23.155,23.155 v 0 c 0,12.788 -10.367,23.155 -23.155,23.155 z"
   id="path1137" />

	<path
   style="fill:#de87aa;fill-opacity:0.679412;stroke-width:0.37178;stroke-miterlimit:4;stroke-dasharray:none"
   d="m 432.329,252.139 h -44.766 c -12.788,0 -23.155,-10.367 -23.155,-23.155 v 0 c 0,-12.788 10.367,-23.155 23.155,-23.155 h 44.766 c 12.788,0 23.155,10.367 23.155,23.155 v 0 c -10e-4,12.788 -10.367,23.155 -23.155,23.155 z"
   id="path1139" />

	<path
   style="fill:#de87aa;fill-opacity:0.679412;stroke-width:0.37178;stroke-miterlimit:4;stroke-dasharray:none"
   d="m 426.668,340.148 h -44.766 c -12.788,0 -23.155,-10.367 -23.155,-23.155 v 0 c 0,-12.788 10.367,-23.155 23.155,-23.155 h 44.766 c 12.788,0 23.155,10.367 23.155,23.155 v 0 c 0,12.787 -10.366,23.155 -23.155,23.155 z"
   id="path1141" />

	<path
   style="fill:#de87aa;fill-opacity:0.679412;stroke-width:0.37178;stroke-miterlimit:4;stroke-dasharray:none"
   d="m 413.803,428.157 h -44.766 c -12.788,0 -23.155,-10.367 -23.155,-23.155 v 0 c 0,-12.788 10.367,-23.155 23.155,-23.155 h 44.766 c 12.788,0 23.155,10.367 23.155,23.155 v 0 c 0,12.788 -10.367,23.155 -23.155,23.155 z"
   id="path1143" />

	<path
   style="fill:#de87aa;fill-opacity:0.679412;stroke-width:0.37178;stroke-miterlimit:4;stroke-dasharray:none"
   d="m 79.671,252.139 h 44.766 c 12.788,0 23.155,-10.367 23.155,-23.155 v 0 c 0,-12.788 -10.367,-23.155 -23.155,-23.155 H 79.671 c -12.788,0 -23.155,10.367 -23.155,23.155 v 0 c 0.001,12.788 10.367,23.155 23.155,23.155 z"
   id="path1145" />

	<path
   style="fill:#de87aa;fill-opacity:0.679412;stroke-width:0.37178;stroke-miterlimit:4;stroke-dasharray:none"
   d="m 99.741,164.129 h 44.766 c 12.788,0 23.155,-10.367 23.155,-23.155 v 0 c 0,-12.788 -10.367,-23.155 -23.155,-23.155 H 99.741 c -12.788,0 -23.155,10.367 -23.155,23.155 v 0 c 0,12.789 10.367,23.155 23.155,23.155 z"
   id="path1147" />

	<path
   style="fill:#de87aa;fill-opacity:0.679412;stroke-width:0.37178;stroke-miterlimit:4;stroke-dasharray:none"
   d="m 85.332,340.148 h 44.766 c 12.788,0 23.155,-10.367 23.155,-23.155 v 0 c 0,-12.788 -10.367,-23.155 -23.155,-23.155 H 85.332 c -12.788,0 -23.155,10.367 -23.155,23.155 v 0 c 0,12.787 10.366,23.155 23.155,23.155 z"
   id="path1149" />

	<path
   style="fill:#de87aa;fill-opacity:0.679412;stroke-width:0.37178;stroke-miterlimit:4;stroke-dasharray:none"
   d="m 98.197,428.157 h 44.766 c 12.788,0 23.155,-10.367 23.155,-23.155 v 0 c 0,-12.788 -10.367,-23.155 -23.155,-23.155 H 98.197 c -12.788,0 -23.155,10.367 -23.155,23.155 v 0 c 0,12.788 10.367,23.155 23.155,23.155 z"
   id="path1151" />

</g>
      <g
         id="g1161"
         style="fill:#de87aa;fill-opacity:0.679412;stroke-width:0.37178;stroke-miterlimit:4;stroke-dasharray:none">
	<path
   style="fill:#de87aa;fill-opacity:0.679412;stroke-width:0.37178;stroke-miterlimit:4;stroke-dasharray:none"
   d="m 270.051,325.498 c -5.588,15.561 -10.868,30.257 -10.868,60.431 0,30.174 5.28,44.871 10.868,60.421 5.784,16.127 11.773,32.789 11.773,65.649 h -15.437 c 0,-30.175 -5.28,-44.871 -10.868,-60.421 -5.784,-16.127 -11.773,-32.789 -11.773,-65.649 0,-32.86 5.99,-49.533 11.773,-65.649 5.588,-15.561 10.868,-30.247 10.868,-60.421 0,-30.174 -5.28,-44.871 -10.868,-60.431 -5.784,-16.116 -11.773,-32.778 -11.773,-65.639 0,-32.861 5.99,-49.533 11.773,-65.649 5.588,-15.55 10.868,-30.247 10.868,-60.421 0,-4.261 3.458,-7.719 7.719,-7.719 4.261,0 7.719,3.458 7.719,7.719 0,32.861 -5.99,49.522 -11.773,65.649 -5.588,15.55 -10.868,30.247 -10.868,60.421 0,30.174 5.28,44.871 10.868,60.421 5.784,16.116 11.773,32.789 11.773,65.649 0,32.86 -5.99,49.523 -11.774,65.639 z"
   id="path1155" />

	<path
   style="fill:#de87aa;fill-opacity:0.679412;stroke-width:0.37178;stroke-miterlimit:4;stroke-dasharray:none"
   d="m 408.461,446.351 c 5.794,16.127 11.773,32.789 11.773,65.649 h -15.437 c 0,-30.175 -5.28,-44.871 -10.868,-60.421 -5.784,-16.127 -11.773,-32.789 -11.773,-65.649 0,-32.86 5.99,-49.533 11.773,-65.649 5.588,-15.561 10.868,-30.247 10.868,-60.421 0,-30.174 -5.28,-44.871 -10.868,-60.431 -2.861,-7.986 -5.825,-16.24 -8.058,-26.583 -0.895,-4.168 1.75,-8.274 5.918,-9.18 4.168,-0.895 8.274,1.76 9.17,5.928 2.017,9.345 4.683,16.765 7.502,24.617 5.794,16.116 11.773,32.789 11.773,65.649 0,32.86 -5.979,49.522 -11.773,65.639 -5.588,15.561 -10.868,30.257 -10.868,60.431 0,30.174 5.279,44.87 10.868,60.421 z"
   id="path1157" />

	<path
   style="fill:#de87aa;fill-opacity:0.679412;stroke-width:0.37178;stroke-miterlimit:4;stroke-dasharray:none"
   d="m 118.067,320.28 c 5.784,16.116 11.773,32.789 11.773,65.649 0,32.86 -5.99,49.522 -11.773,65.649 -5.588,15.55 -10.868,30.247 -10.868,60.421 H 91.762 c 0,-32.861 5.99,-49.522 11.773,-65.649 5.588,-15.55 10.868,-30.247 10.868,-60.421 0,-30.174 -5.28,-44.871 -10.868,-60.431 -5.784,-16.116 -11.773,-32.778 -11.773,-65.639 0,-32.861 5.99,-49.533 11.773,-65.649 5.588,-15.55 10.868,-30.247 10.868,-60.421 0,-13.585 -1.101,-25.296 -3.365,-35.804 -0.895,-4.168 1.75,-8.274 5.918,-9.17 4.168,-0.906 8.274,1.75 9.17,5.918 2.501,11.588 3.715,24.36 3.715,39.056 0,32.861 -5.99,49.522 -11.773,65.639 -5.588,15.561 -10.868,30.257 -10.868,60.431 0,30.174 5.278,44.861 10.867,60.421 z"
   id="path1159" />

</g>
      <g
         id="g1163"
         style="fill:#de87aa;fill-opacity:0.679412;stroke-width:0.37178;stroke-miterlimit:4;stroke-dasharray:none">
</g>
      <g
         id="g1165"
         style="fill:#de87aa;fill-opacity:0.679412;stroke-width:0.37178;stroke-miterlimit:4;stroke-dasharray:none">
</g>
      <g
         id="g1167"
         style="fill:#de87aa;fill-opacity:0.679412;stroke-width:0.37178;stroke-miterlimit:4;stroke-dasharray:none">
</g>
      <g
         id="g1169"
         style="fill:#de87aa;fill-opacity:0.679412;stroke-width:0.37178;stroke-miterlimit:4;stroke-dasharray:none">
</g>
      <g
         id="g1171"
         style="fill:#de87aa;fill-opacity:0.679412;stroke-width:0.37178;stroke-miterlimit:4;stroke-dasharray:none">
</g>
      <g
         id="g1173"
         style="fill:#de87aa;fill-opacity:0.679412;stroke-width:0.37178;stroke-miterlimit:4;stroke-dasharray:none">
</g>
      <g
         id="g1175"
         style="fill:#de87aa;fill-opacity:0.679412;stroke-width:0.37178;stroke-miterlimit:4;stroke-dasharray:none">
</g>
      <g
         id="g1177"
         style="fill:#de87aa;fill-opacity:0.679412;stroke-width:0.37178;stroke-miterlimit:4;stroke-dasharray:none">
</g>
      <g
         id="g1179"
         style="fill:#de87aa;fill-opacity:0.679412;stroke-width:0.37178;stroke-miterlimit:4;stroke-dasharray:none">
</g>
      <g
         id="g1181"
         style="fill:#de87aa;fill-opacity:0.679412;stroke-width:0.37178;stroke-miterlimit:4;stroke-dasharray:none">
</g>
      <g
         id="g1183"
         style="fill:#de87aa;fill-opacity:0.679412;stroke-width:0.37178;stroke-miterlimit:4;stroke-dasharray:none">
</g>
      <g
         id="g1185"
         style="fill:#de87aa;fill-opacity:0.679412;stroke-width:0.37178;stroke-miterlimit:4;stroke-dasharray:none">
</g>
      <g
         id="g1187"
         style="fill:#de87aa;fill-opacity:0.679412;stroke-width:0.37178;stroke-miterlimit:4;stroke-dasharray:none">
</g>
      <g
         id="g1189"
         style="fill:#de87aa;fill-opacity:0.679412;stroke-width:0.37178;stroke-miterlimit:4;stroke-dasharray:none">
</g>
      <g
         id="g1191"
         style="fill:#de87aa;fill-opacity:0.679412;stroke-width:0.37178;stroke-miterlimit:4;stroke-dasharray:none">
</g>
    </g>
    <g
       id="g1298"
       transform="matrix(0.46952304,0,0,0.67154702,286.27079,220.36404)"
       style="fill:#de87aa;fill-opacity:0.679412;stroke-width:0.471929;stroke-miterlimit:4;stroke-dasharray:none">
      <g
         id="g1258"
         style="fill:#de87aa;fill-opacity:0.679412;stroke-width:0.471929;stroke-miterlimit:4;stroke-dasharray:none">
	<path
   style="fill:#de87aa;fill-opacity:0.679412;stroke-width:0.471929;stroke-miterlimit:4;stroke-dasharray:none"
   d="m 290.828,76.142 h -44.766 c -12.788,0 -23.155,-10.367 -23.155,-23.155 v 0 c 0,-12.788 10.367,-23.155 23.155,-23.155 h 44.766 c 12.788,0 23.155,10.367 23.155,23.155 v 0 c 0,12.789 -10.367,23.155 -23.155,23.155 z"
   id="path1234" />

	<path
   style="fill:#de87aa;fill-opacity:0.679412;stroke-width:0.471929;stroke-miterlimit:4;stroke-dasharray:none"
   d="M 293.916,252.139 H 249.15 c -12.788,0 -23.155,-10.367 -23.155,-23.155 v 0 c 0,-12.788 10.367,-23.155 23.155,-23.155 h 44.766 c 12.788,0 23.155,10.367 23.155,23.155 v 0 c 0,12.788 -10.367,23.155 -23.155,23.155 z"
   id="path1236" />

	<path
   style="fill:#de87aa;fill-opacity:0.679412;stroke-width:0.471929;stroke-miterlimit:4;stroke-dasharray:none"
   d="M 273.846,164.129 H 229.08 c -12.788,0 -23.155,-10.367 -23.155,-23.155 v 0 c 0,-12.788 10.367,-23.155 23.155,-23.155 h 44.766 c 12.788,0 23.155,10.367 23.155,23.155 v 0 c 0,12.789 -10.367,23.155 -23.155,23.155 z"
   id="path1238" />

	<path
   style="fill:#de87aa;fill-opacity:0.679412;stroke-width:0.471929;stroke-miterlimit:4;stroke-dasharray:none"
   d="M 288.256,340.148 H 243.49 c -12.788,0 -23.155,-10.367 -23.155,-23.155 v 0 c 0,-12.788 10.367,-23.155 23.155,-23.155 h 44.766 c 12.788,0 23.155,10.367 23.155,23.155 v 0 c -0.002,12.787 -10.368,23.155 -23.155,23.155 z"
   id="path1240" />

	<path
   style="fill:#de87aa;fill-opacity:0.679412;stroke-width:0.471929;stroke-miterlimit:4;stroke-dasharray:none"
   d="m 275.39,428.157 h -44.766 c -12.788,0 -23.155,-10.367 -23.155,-23.155 v 0 c 0,-12.788 10.367,-23.155 23.155,-23.155 h 44.766 c 12.788,0 23.155,10.367 23.155,23.155 v 0 c 0,12.788 -10.367,23.155 -23.155,23.155 z"
   id="path1242" />

	<path
   style="fill:#de87aa;fill-opacity:0.679412;stroke-width:0.471929;stroke-miterlimit:4;stroke-dasharray:none"
   d="m 432.329,252.139 h -44.766 c -12.788,0 -23.155,-10.367 -23.155,-23.155 v 0 c 0,-12.788 10.367,-23.155 23.155,-23.155 h 44.766 c 12.788,0 23.155,10.367 23.155,23.155 v 0 c -10e-4,12.788 -10.367,23.155 -23.155,23.155 z"
   id="path1244" />

	<path
   style="fill:#de87aa;fill-opacity:0.679412;stroke-width:0.471929;stroke-miterlimit:4;stroke-dasharray:none"
   d="m 426.668,340.148 h -44.766 c -12.788,0 -23.155,-10.367 -23.155,-23.155 v 0 c 0,-12.788 10.367,-23.155 23.155,-23.155 h 44.766 c 12.788,0 23.155,10.367 23.155,23.155 v 0 c 0,12.787 -10.366,23.155 -23.155,23.155 z"
   id="path1246" />

	<path
   style="fill:#de87aa;fill-opacity:0.679412;stroke-width:0.471929;stroke-miterlimit:4;stroke-dasharray:none"
   d="m 413.803,428.157 h -44.766 c -12.788,0 -23.155,-10.367 -23.155,-23.155 v 0 c 0,-12.788 10.367,-23.155 23.155,-23.155 h 44.766 c 12.788,0 23.155,10.367 23.155,23.155 v 0 c 0,12.788 -10.367,23.155 -23.155,23.155 z"
   id="path1248" />

	<path
   style="fill:#de87aa;fill-opacity:0.679412;stroke-width:0.471929;stroke-miterlimit:4;stroke-dasharray:none"
   d="m 79.671,252.139 h 44.766 c 12.788,0 23.155,-10.367 23.155,-23.155 v 0 c 0,-12.788 -10.367,-23.155 -23.155,-23.155 H 79.671 c -12.788,0 -23.155,10.367 -23.155,23.155 v 0 c 0.001,12.788 10.367,23.155 23.155,23.155 z"
   id="path1250" />

	<path
   style="fill:#de87aa;fill-opacity:0.679412;stroke-width:0.471929;stroke-miterlimit:4;stroke-dasharray:none"
   d="m 99.741,164.129 h 44.766 c 12.788,0 23.155,-10.367 23.155,-23.155 v 0 c 0,-12.788 -10.367,-23.155 -23.155,-23.155 H 99.741 c -12.788,0 -23.155,10.367 -23.155,23.155 v 0 c 0,12.789 10.367,23.155 23.155,23.155 z"
   id="path1252" />

	<path
   style="fill:#de87aa;fill-opacity:0.679412;stroke-width:0.471929;stroke-miterlimit:4;stroke-dasharray:none"
   d="m 85.332,340.148 h 44.766 c 12.788,0 23.155,-10.367 23.155,-23.155 v 0 c 0,-12.788 -10.367,-23.155 -23.155,-23.155 H 85.332 c -12.788,0 -23.155,10.367 -23.155,23.155 v 0 c 0,12.787 10.366,23.155 23.155,23.155 z"
   id="path1254" />

	<path
   style="fill:#de87aa;fill-opacity:0.679412;stroke-width:0.471929;stroke-miterlimit:4;stroke-dasharray:none"
   d="m 98.197,428.157 h 44.766 c 12.788,0 23.155,-10.367 23.155,-23.155 v 0 c 0,-12.788 -10.367,-23.155 -23.155,-23.155 H 98.197 c -12.788,0 -23.155,10.367 -23.155,23.155 v 0 c 0,12.788 10.367,23.155 23.155,23.155 z"
   id="path1256" />

</g>
      <g
         id="g1266"
         style="fill:#de87aa;fill-opacity:0.679412;stroke-width:0.471929;stroke-miterlimit:4;stroke-dasharray:none">
	<path
   style="fill:#de87aa;fill-opacity:0.679412;stroke-width:0.471929;stroke-miterlimit:4;stroke-dasharray:none"
   d="m 270.051,325.498 c -5.588,15.561 -10.868,30.257 -10.868,60.431 0,30.174 5.28,44.871 10.868,60.421 5.784,16.127 11.773,32.789 11.773,65.649 h -15.437 c 0,-30.175 -5.28,-44.871 -10.868,-60.421 -5.784,-16.127 -11.773,-32.789 -11.773,-65.649 0,-32.86 5.99,-49.533 11.773,-65.649 5.588,-15.561 10.868,-30.247 10.868,-60.421 0,-30.174 -5.28,-44.871 -10.868,-60.431 -5.784,-16.116 -11.773,-32.778 -11.773,-65.639 0,-32.861 5.99,-49.533 11.773,-65.649 5.588,-15.55 10.868,-30.247 10.868,-60.421 0,-4.261 3.458,-7.719 7.719,-7.719 4.261,0 7.719,3.458 7.719,7.719 0,32.861 -5.99,49.522 -11.773,65.649 -5.588,15.55 -10.868,30.247 -10.868,60.421 0,30.174 5.28,44.871 10.868,60.421 5.784,16.116 11.773,32.789 11.773,65.649 0,32.86 -5.99,49.523 -11.774,65.639 z"
   id="path1260" />

	<path
   style="fill:#de87aa;fill-opacity:0.679412;stroke-width:0.471929;stroke-miterlimit:4;stroke-dasharray:none"
   d="m 408.461,446.351 c 5.794,16.127 11.773,32.789 11.773,65.649 h -15.437 c 0,-30.175 -5.28,-44.871 -10.868,-60.421 -5.784,-16.127 -11.773,-32.789 -11.773,-65.649 0,-32.86 5.99,-49.533 11.773,-65.649 5.588,-15.561 10.868,-30.247 10.868,-60.421 0,-30.174 -5.28,-44.871 -10.868,-60.431 -2.861,-7.986 -5.825,-16.24 -8.058,-26.583 -0.895,-4.168 1.75,-8.274 5.918,-9.18 4.168,-0.895 8.274,1.76 9.17,5.928 2.017,9.345 4.683,16.765 7.502,24.617 5.794,16.116 11.773,32.789 11.773,65.649 0,32.86 -5.979,49.522 -11.773,65.639 -5.588,15.561 -10.868,30.257 -10.868,60.431 0,30.174 5.279,44.87 10.868,60.421 z"
   id="path1262" />

	<path
   style="fill:#de87aa;fill-opacity:0.679412;stroke-width:0.471929;stroke-miterlimit:4;stroke-dasharray:none"
   d="m 118.067,320.28 c 5.784,16.116 11.773,32.789 11.773,65.649 0,32.86 -5.99,49.522 -11.773,65.649 -5.588,15.55 -10.868,30.247 -10.868,60.421 H 91.762 c 0,-32.861 5.99,-49.522 11.773,-65.649 5.588,-15.55 10.868,-30.247 10.868,-60.421 0,-30.174 -5.28,-44.871 -10.868,-60.431 -5.784,-16.116 -11.773,-32.778 -11.773,-65.639 0,-32.861 5.99,-49.533 11.773,-65.649 5.588,-15.55 10.868,-30.247 10.868,-60.421 0,-13.585 -1.101,-25.296 -3.365,-35.804 -0.895,-4.168 1.75,-8.274 5.918,-9.17 4.168,-0.906 8.274,1.75 9.17,5.918 2.501,11.588 3.715,24.36 3.715,39.056 0,32.861 -5.99,49.522 -11.773,65.639 -5.588,15.561 -10.868,30.257 -10.868,60.431 0,30.174 5.278,44.861 10.867,60.421 z"
   id="path1264" />

</g>
      <g
         id="g1268"
         style="fill:#de87aa;fill-opacity:0.679412;stroke-width:0.471929;stroke-miterlimit:4;stroke-dasharray:none">
</g>
      <g
         id="g1270"
         style="fill:#de87aa;fill-opacity:0.679412;stroke-width:0.471929;stroke-miterlimit:4;stroke-dasharray:none">
</g>
      <g
         id="g1272"
         style="fill:#de87aa;fill-opacity:0.679412;stroke-width:0.471929;stroke-miterlimit:4;stroke-dasharray:none">
</g>
      <g
         id="g1274"
         style="fill:#de87aa;fill-opacity:0.679412;stroke-width:0.471929;stroke-miterlimit:4;stroke-dasharray:none">
</g>
      <g
         id="g1276"
         style="fill:#de87aa;fill-opacity:0.679412;stroke-width:0.471929;stroke-miterlimit:4;stroke-dasharray:none">
</g>
      <g
         id="g1278"
         style="fill:#de87aa;fill-opacity:0.679412;stroke-width:0.471929;stroke-miterlimit:4;stroke-dasharray:none">
</g>
      <g
         id="g1280"
         style="fill:#de87aa;fill-opacity:0.679412;stroke-width:0.471929;stroke-miterlimit:4;stroke-dasharray:none">
</g>
      <g
         id="g1282"
         style="fill:#de87aa;fill-opacity:0.679412;stroke-width:0.471929;stroke-miterlimit:4;stroke-dasharray:none">
</g>
      <g
         id="g1284"
         style="fill:#de87aa;fill-opacity:0.679412;stroke-width:0.471929;stroke-miterlimit:4;stroke-dasharray:none">
</g>
      <g
         id="g1286"
         style="fill:#de87aa;fill-opacity:0.679412;stroke-width:0.471929;stroke-miterlimit:4;stroke-dasharray:none">
</g>
      <g
         id="g1288"
         style="fill:#de87aa;fill-opacity:0.679412;stroke-width:0.471929;stroke-miterlimit:4;stroke-dasharray:none">
</g>
      <g
         id="g1290"
         style="fill:#de87aa;fill-opacity:0.679412;stroke-width:0.471929;stroke-miterlimit:4;stroke-dasharray:none">
</g>
      <g
         id="g1292"
         style="fill:#de87aa;fill-opacity:0.679412;stroke-width:0.471929;stroke-miterlimit:4;stroke-dasharray:none">
</g>
      <g
         id="g1294"
         style="fill:#de87aa;fill-opacity:0.679412;stroke-width:0.471929;stroke-miterlimit:4;stroke-dasharray:none">
</g>
      <g
         id="g1296"
         style="fill:#de87aa;fill-opacity:0.679412;stroke-width:0.471929;stroke-miterlimit:4;stroke-dasharray:none">
</g>
    </g>
    <g
       id="g1310"
       transform="matrix(0.69773013,0,0,0.69773013,-95.718541,-32.452732)"
       style="stroke-width:1.43322">
      <circle
         style="opacity:0.8;fill:#ececec;fill-opacity:0.270588;stroke:none;stroke-width:0.379802;stroke-linecap:round;stroke-linejoin:round;stroke-miterlimit:4;stroke-dasharray:none"
         id="path1302"
         cx="124.61875"
         cy="143.66875"
         r="9.260417" />
      <circle
         style="opacity:0.8;fill:#ececec;fill-opacity:0.270588;stroke:none;stroke-width:0.379802;stroke-linecap:round;stroke-linejoin:round;stroke-miterlimit:4;stroke-dasharray:none"
         id="path1306"
         cx="127.92604"
         cy="141.02292"
         r="2.6458333" />
    </g>
    <g
       id="g1316"
       transform="matrix(0.48628598,0,0,0.48628598,-64.799823,14.24236)"
       style="stroke-width:2.0564">
      <circle
         style="opacity:0.8;fill:#ececec;fill-opacity:0.270588;stroke:none;stroke-width:0.544944;stroke-linecap:round;stroke-linejoin:round;stroke-miterlimit:4;stroke-dasharray:none"
         id="circle1312"
         cx="124.61875"
         cy="143.66875"
         r="9.260417" />
      <circle
         style="opacity:0.8;fill:#ececec;fill-opacity:0.270588;stroke:none;stroke-width:0.544944;stroke-linecap:round;stroke-linejoin:round;stroke-miterlimit:4;stroke-dasharray:none"
         id="circle1314"
         cx="127.92604"
         cy="141.02292"
         r="2.6458333" />
    </g>
    <g
       id="g1322"
       transform="matrix(0.31713066,0,0,0.31713066,-50.507843,50.29306)"
       style="stroke-width:3.15327">
      <circle
         style="opacity:0.8;fill:#ececec;fill-opacity:0.270588;stroke:none;stroke-width:0.835614;stroke-linecap:round;stroke-linejoin:round;stroke-miterlimit:4;stroke-dasharray:none"
         id="circle1318"
         cx="124.61875"
         cy="143.66875"
         r="9.260417" />
      <circle
         style="opacity:0.8;fill:#ececec;fill-opacity:0.270588;stroke:none;stroke-width:0.835614;stroke-linecap:round;stroke-linejoin:round;stroke-miterlimit:4;stroke-dasharray:none"
         id="circle1320"
         cx="127.92604"
         cy="141.02292"
         r="2.6458333" />
    </g>
    <g
       id="g1328"
       transform="matrix(0.52857481,0,0,0.52857481,-72.027866,31.271897)"
       style="stroke-width:1.89188">
      <circle
         style="opacity:0.8;fill:#ececec;fill-opacity:0.270588;stroke:none;stroke-width:0.501346;stroke-linecap:round;stroke-linejoin:round;stroke-miterlimit:4;stroke-dasharray:none"
         id="circle1324"
         cx="124.61875"
         cy="143.66875"
         r="9.260417" />
      <circle
         style="opacity:0.8;fill:#ececec;fill-opacity:0.270588;stroke:none;stroke-width:0.501346;stroke-linecap:round;stroke-linejoin:round;stroke-miterlimit:4;stroke-dasharray:none"
         id="circle1326"
         cx="127.92604"
         cy="141.02292"
         r="2.6458333" />
    </g>
    <g
       id="g1334"
       transform="matrix(2.5307081,0,0,2.4762814,-126.38435,-229.9885)"
       style="stroke-width:0.399462">
      <circle
         style="opacity:0.8;fill:#ececec;fill-opacity:0.270588;stroke:none;stroke-width:0.105858;stroke-linecap:round;stroke-linejoin:round;stroke-miterlimit:4;stroke-dasharray:none"
         id="circle1330"
         cx="124.61875"
         cy="143.66875"
         r="9.260417" />
      <circle
         style="opacity:0.8;fill:#ececec;fill-opacity:0.270588;stroke:none;stroke-width:0.105858;stroke-linecap:round;stroke-linejoin:round;stroke-miterlimit:4;stroke-dasharray:none"
         id="circle1332"
         cx="127.92604"
         cy="141.02292"
         r="2.6458333" />
    </g>
    <g
       id="g1340"
       transform="matrix(1.1156117,0,0,1.0916187,44.923063,19.627556)"
       style="stroke-width:0.906163">
      <circle
         style="opacity:0.8;fill:#ececec;fill-opacity:0.270588;stroke:none;stroke-width:0.240133;stroke-linecap:round;stroke-linejoin:round;stroke-miterlimit:4;stroke-dasharray:none"
         id="circle1336"
         cx="124.61875"
         cy="143.66875"
         r="9.260417" />
      <circle
         style="opacity:0.8;fill:#ececec;fill-opacity:0.270588;stroke:none;stroke-width:0.240133;stroke-linecap:round;stroke-linejoin:round;stroke-miterlimit:4;stroke-dasharray:none"
         id="circle1338"
         cx="127.92604"
         cy="141.02292"
         r="2.6458333" />
    </g>
    <g
       id="g1346"
       transform="matrix(2.0952938,0,0,2.0502314,-72.123556,-68.896771)"
       style="stroke-width:0.482475">
      <circle
         style="opacity:0.8;fill:#ececec;fill-opacity:0.270588;stroke:none;stroke-width:0.127856;stroke-linecap:round;stroke-linejoin:round;stroke-miterlimit:4;stroke-dasharray:none"
         id="circle1342"
         cx="124.61875"
         cy="143.66875"
         r="9.260417" />
      <circle
         style="opacity:0.8;fill:#ececec;fill-opacity:0.270588;stroke:none;stroke-width:0.127856;stroke-linecap:round;stroke-linejoin:round;stroke-miterlimit:4;stroke-dasharray:none"
         id="circle1344"
         cx="127.92604"
         cy="141.02292"
         r="2.6458333" />
    </g>
    <g
       id="g1352"
       transform="matrix(1.1156117,0,0,1.0916187,37.866858,112.3663)"
       style="stroke-width:0.906163">
      <circle
         style="opacity:0.8;fill:#ececec;fill-opacity:0.270588;stroke:none;stroke-width:0.240133;stroke-linecap:round;stroke-linejoin:round;stroke-miterlimit:4;stroke-dasharray:none"
         id="circle1348"
         cx="124.61875"
         cy="143.66875"
         r="9.260417" />
      <circle
         style="opacity:0.8;fill:#ececec;fill-opacity:0.270588;stroke:none;stroke-width:0.240133;stroke-linecap:round;stroke-linejoin:round;stroke-miterlimit:4;stroke-dasharray:none"
         id="circle1350"
         cx="127.92604"
         cy="141.02292"
         r="2.6458333" />
    </g>
    <g
       id="g1358"
       transform="matrix(1.7830883,0,0,1.7447401,-39.132123,60.870396)"
       style="stroke-width:0.566951">
      <circle
         style="opacity:0.8;fill:#ececec;fill-opacity:0.270588;stroke:none;stroke-width:0.150241;stroke-linecap:round;stroke-linejoin:round;stroke-miterlimit:4;stroke-dasharray:none"
         id="circle1354"
         cx="124.61875"
         cy="143.66875"
         r="9.260417" />
      <circle
         style="opacity:0.8;fill:#ececec;fill-opacity:0.270588;stroke:none;stroke-width:0.150241;stroke-linecap:round;stroke-linejoin:round;stroke-miterlimit:4;stroke-dasharray:none"
         id="circle1356"
         cx="127.92604"
         cy="141.02292"
         r="2.6458333" />
    </g>
    <g
       id="g1364"
       transform="matrix(1.3476741,0,0,1.3186901,12.104573,165.51242)"
       style="stroke-width:0.750125">
      <circle
         style="opacity:0.8;fill:#ececec;fill-opacity:0.270588;stroke:none;stroke-width:0.198783;stroke-linecap:round;stroke-linejoin:round;stroke-miterlimit:4;stroke-dasharray:none"
         id="circle1360"
         cx="124.61875"
         cy="143.66875"
         r="9.260417" />
      <circle
         style="opacity:0.8;fill:#ececec;fill-opacity:0.270588;stroke:none;stroke-width:0.198783;stroke-linecap:round;stroke-linejoin:round;stroke-miterlimit:4;stroke-dasharray:none"
         id="circle1362"
         cx="127.92604"
         cy="141.02292"
         r="2.6458333" />
    </g>
    <g
       id="g1370"
       transform="matrix(0.91225975,0,0,0.89264014,63.341268,260.07418)"
       style="stroke-width:1.10816">
      <circle
         style="opacity:0.8;fill:#ececec;fill-opacity:0.270588;stroke:none;stroke-width:0.293661;stroke-linecap:round;stroke-linejoin:round;stroke-miterlimit:4;stroke-dasharray:none"
         id="circle1366"
         cx="124.61875"
         cy="143.66875"
         r="9.260417" />
      <circle
         style="opacity:0.8;fill:#ececec;fill-opacity:0.270588;stroke:none;stroke-width:0.293661;stroke-linecap:round;stroke-linejoin:round;stroke-miterlimit:4;stroke-dasharray:none"
         id="circle1368"
         cx="127.92604"
         cy="141.02292"
         r="2.6458333" />
    </g>
    <g
       id="g1376"
       transform="matrix(0.91225975,0,0,0.89264014,72.413537,287.29099)"
       style="stroke-width:1.10816">
      <circle
         style="opacity:0.8;fill:#ececec;fill-opacity:0.270588;stroke:none;stroke-width:0.293661;stroke-linecap:round;stroke-linejoin:round;stroke-miterlimit:4;stroke-dasharray:none"
         id="circle1372"
         cx="124.61875"
         cy="143.66875"
         r="9.260417" />
      <circle
         style="opacity:0.8;fill:#ececec;fill-opacity:0.270588;stroke:none;stroke-width:0.293661;stroke-linecap:round;stroke-linejoin:round;stroke-miterlimit:4;stroke-dasharray:none"
         id="circle1374"
         cx="127.92604"
         cy="141.02292"
         r="2.6458333" />
    </g>
    <g
       id="g1382"
       transform="matrix(1.4684902,0,0,1.436908,12.279833,242.3617)"
       style="stroke-width:0.688411">
      <circle
         style="opacity:0.8;fill:#ececec;fill-opacity:0.270588;stroke:none;stroke-width:0.182429;stroke-linecap:round;stroke-linejoin:round;stroke-miterlimit:4;stroke-dasharray:none"
         id="circle1378"
         cx="124.61875"
         cy="143.66875"
         r="9.260417" />
      <circle
         style="opacity:0.8;fill:#ececec;fill-opacity:0.270588;stroke:none;stroke-width:0.182429;stroke-linecap:round;stroke-linejoin:round;stroke-miterlimit:4;stroke-dasharray:none"
         id="circle1380"
         cx="127.92604"
         cy="141.02292"
         r="2.6458333" />
    </g>
    <g
       id="g1388"
       transform="matrix(2.012758,0,0,1.9694704,-64.618401,208.07794)"
       style="stroke-width:0.502259">
      <circle
         style="opacity:0.8;fill:#ececec;fill-opacity:0.270588;stroke:none;stroke-width:0.133099;stroke-linecap:round;stroke-linejoin:round;stroke-miterlimit:4;stroke-dasharray:none"
         id="circle1384"
         cx="124.61875"
         cy="143.66875"
         r="9.260417" />
      <circle
         style="opacity:0.8;fill:#ececec;fill-opacity:0.270588;stroke:none;stroke-width:0.133099;stroke-linecap:round;stroke-linejoin:round;stroke-miterlimit:4;stroke-dasharray:none"
         id="circle1386"
         cx="127.92604"
         cy="141.02292"
         r="2.6458333" />
    </g>
    <g
       id="g1394"
       transform="matrix(2.012758,0,0,1.9694704,-54.538111,248.39911)"
       style="stroke-width:0.502259">
      <circle
         style="opacity:0.8;fill:#ececec;fill-opacity:0.270588;stroke:none;stroke-width:0.133099;stroke-linecap:round;stroke-linejoin:round;stroke-miterlimit:4;stroke-dasharray:none"
         id="circle1390"
         cx="124.61875"
         cy="143.66875"
         r="9.260417" />
      <circle
         style="opacity:0.8;fill:#ececec;fill-opacity:0.270588;stroke:none;stroke-width:0.133099;stroke-linecap:round;stroke-linejoin:round;stroke-miterlimit:4;stroke-dasharray:none"
         id="circle1392"
         cx="127.92604"
         cy="141.02292"
         r="2.6458333" />
    </g>
    <g
       id="g1091"
       transform="matrix(0.45067428,0,0,0.45067428,158.97988,357.04527)"
       style="fill:#37c871;fill-opacity:0.820588;stroke-width:0.587085">
      <path
         style="fill:#37c871;fill-opacity:0.820588;stroke-width:0.587085"
         d="m 212.547,460.851 c 3.162,-24.305 4.864,-52.887 -13.417,-69.225 -25.495,-22.799 -70.415,-4.352 -97.31,-25.464 C 82.078,350.682 81.4,321.829 74.488,297.72 66.838,271.036 49.385,247.273 26.209,231.988 20.11,227.967 12.792,223.103 12.927,215.785 c 0.151,-8.237 10.797,-12.951 18.552,-10.18 7.755,2.771 12.77,10.225 16.625,17.498 3.855,7.288 7.349,15.164 13.824,20.254 -0.045,-17.001 -0.075,-34.003 -0.12,-51.004 -0.015,-4.608 0.437,-10.059 4.397,-12.424 5.542,-3.298 13.478,0.542 15.089,16.369 2.199,21.609 4.397,43.234 6.596,64.843 11.384,-10.089 16.535,-26.699 12.86,-41.457 -1.596,-6.4 -4.292,-14.321 0.648,-18.688 5.421,-4.804 15.887,-1.717 18.281,13.327 5.677,35.689 -27.648,71.258 -15.872,105.442 6.641,19.29 26.729,37.722 75.821,39.304 -11.264,-19.26 -22.92,-40.177 -20.856,-62.389 1.566,-16.776 10.812,-31.759 15.45,-47.962 10.933,-38.174 -7.394,-82.703 -42.029,-102.129 -11.927,-6.686 -25.329,-10.601 -36.774,-18.101 -11.415,-7.499 -21.052,-20.239 -19.17,-33.792 15.556,-6.505 32.512,4.909 44.695,16.55 12.183,11.64 25.992,25.224 42.782,23.733 4.984,-11.068 -3.087,-23.898 -12.981,-30.931 -9.894,-7.032 -21.926,-11.083 -30.539,-19.622 -8.629,-8.538 -12.002,-24.591 -2.424,-32.045 9.788,-7.635 24.094,-0.467 33.129,8.026 26.504,24.922 40.599,60.988 44.529,97.144 3.915,36.171 -1.521,72.719 -9.276,108.273 -3.735,17.137 4.006,27.603 17.679,17.047 42.21,-32.602 28.009,-72.056 32.331,-87.13 1.656,-5.768 6.942,-11.098 12.89,-10.315 9.939,1.31 10.662,15.36 8.629,25.178 -5.436,26.202 -11.505,53.7 -29.229,73.743 -7.891,8.93 -17.784,15.962 -25.374,25.148 -7.605,9.186 -12.815,21.73 -8.96,32.994 5.707,16.715 29.365,21.384 44.574,12.424 32.693,-19.26 43.144,-116.058 41.879,-144.113 -1.31,-29.32 -11.249,-59.437 -32.964,-79.179 -10.722,-9.758 -23.853,-16.61 -34.485,-26.458 -10.632,-9.848 -18.854,-24.41 -15.36,-38.49 13.222,-8.824 30.901,2.756 39.71,15.992 8.794,13.237 15.27,29.711 29.711,36.337 C 256.307,98.04 245.42,77.078 234.547,56.116 c -6.024,-11.61 -11.038,-26.985 1.31,-33.069 6.084,-2.997 13.764,0 18.221,5.105 4.457,5.12 6.46,11.866 8.328,18.387 8.599,29.907 17.197,59.799 25.796,89.705 27.302,-52.932 4.427,-94.027 3.539,-111.24 -0.437,-8.493 2.394,-17.815 9.562,-22.392 10.497,-6.702 25.481,0.346 31.097,11.474 13.538,26.79 -12.574,75.234 -25.404,117.594 -8.252,27.256 -12.122,57.374 -1.31,83.712 5.466,-15.375 10.933,-30.75 16.399,-46.11 1.792,-5.03 4.412,-10.797 9.653,-11.791 5.286,-1.009 10.195,3.991 11.159,9.291 1.536,8.478 -71.529,205.673 -74.451,213.76 30.193,-27.497 60.386,-55.01 90.579,-82.507 8.252,-7.514 16.896,-15.646 19.787,-26.428 6.581,-24.546 -18.778,-45.583 -24.862,-70.249 -4.593,-18.628 6.596,-29.109 16.55,-26.835 6.219,1.416 10.059,7.529 12.845,13.252 7.8,16.053 12.71,33.506 14.381,51.275 6.581,-13.192 13.176,-26.398 19.757,-39.59 4.141,-8.297 10.24,-17.845 19.516,-17.559 7.951,0.241 13.824,8.433 14.321,16.384 1.37,22.317 -46.065,89.525 -63.985,111.556 8.84,-5.978 18.402,-12.183 29.064,-12.077 10.662,0.09 21.82,9.728 19.2,20.073 -3.192,12.604 -20.344,13.432 -33.34,13.779 -33.355,0.888 -65.928,17.709 -85.986,44.378 -14.773,19.667 -22.769,43.836 -38.114,63.051 -15.345,19.215 -43.113,32.768 -64.497,20.6"
         id="path1059" />
      <g
         id="g1061"
         style="fill:#37c871;fill-opacity:0.820588;stroke-width:0.587085">
</g>
      <g
         id="g1063"
         style="fill:#37c871;fill-opacity:0.820588;stroke-width:0.587085">
</g>
      <g
         id="g1065"
         style="fill:#37c871;fill-opacity:0.820588;stroke-width:0.587085">
</g>
      <g
         id="g1067"
         style="fill:#37c871;fill-opacity:0.820588;stroke-width:0.587085">
</g>
      <g
         id="g1069"
         style="fill:#37c871;fill-opacity:0.820588;stroke-width:0.587085">
</g>
      <g
         id="g1071"
         style="fill:#37c871;fill-opacity:0.820588;stroke-width:0.587085">
</g>
      <g
         id="g1073"
         style="fill:#37c871;fill-opacity:0.820588;stroke-width:0.587085">
</g>
      <g
         id="g1075"
         style="fill:#37c871;fill-opacity:0.820588;stroke-width:0.587085">
</g>
      <g
         id="g1077"
         style="fill:#37c871;fill-opacity:0.820588;stroke-width:0.587085">
</g>
      <g
         id="g1079"
         style="fill:#37c871;fill-opacity:0.820588;stroke-width:0.587085">
</g>
      <g
         id="g1081"
         style="fill:#37c871;fill-opacity:0.820588;stroke-width:0.587085">
</g>
      <g
         id="g1083"
         style="fill:#37c871;fill-opacity:0.820588;stroke-width:0.587085">
</g>
      <g
         id="g1085"
         style="fill:#37c871;fill-opacity:0.820588;stroke-width:0.587085">
</g>
      <g
         id="g1087"
         style="fill:#37c871;fill-opacity:0.820588;stroke-width:0.587085">
</g>
      <g
         id="g1089"
         style="fill:#37c871;fill-opacity:0.820588;stroke-width:0.587085">
</g>
    </g>
    <g
       id="g1400"
       transform="matrix(0.69773013,0,0,0.69773013,-92.026384,-48.698215)"
       style="stroke-width:1.43322">
      <circle
         style="opacity:0.8;fill:#ececec;fill-opacity:0.270588;stroke:none;stroke-width:0.379802;stroke-linecap:round;stroke-linejoin:round;stroke-miterlimit:4;stroke-dasharray:none"
         id="circle1396"
         cx="124.61875"
         cy="143.66875"
         r="9.260417" />
      <circle
         style="opacity:0.8;fill:#ececec;fill-opacity:0.270588;stroke:none;stroke-width:0.379802;stroke-linecap:round;stroke-linejoin:round;stroke-miterlimit:4;stroke-dasharray:none"
         id="circle1398"
         cx="127.92604"
         cy="141.02292"
         r="2.6458333" />
    </g>
  </g>
</svg>
